<svg xmlns="http://www.w3.org/2000/svg" viewBox="0 0 256 256">
  <defs>
    <linearGradient id="g" x1="0" y1="0" x2="1" y2="1">
      <stop offset="0" stop-color="#7c3aed"/>
      <stop offset="1" stop-color="#06b6d4"/>
    </linearGradient>
  </defs>
  <rect width="256" height="256" rx="48" fill="url(#g)"/>

  <circle cx="128" cy="128" r="92" fill="rgba(255,255,255,0.12)"/>
  <!-- walking path -->
  <path d="M68 178 C92 154, 110 142, 130 132 C156 120, 177 108, 188 86"
        fill="none" stroke="#fff" stroke-width="10" stroke-linecap="round" opacity="0.25"/>
  <!-- heart anchor -->
  <path d="M128 92
           C118 80, 100 86, 100 103
           C100 121, 128 138, 128 138
           C128 138, 156 121, 156 103
           C156 86, 138 80, 128 92Z"
        fill="#ffffff" opacity="0.92"/>
  <!-- star -->
  <path d="M196 78 L203 95 L222 98 L207 110 L211 128 L196 118 L181 128 L185 110 L170 98 L189 95 Z"
        fill="#ffffff" opacity="0.35"/>
</svg>

