<svg xmlns="http://www.w3.org/2000/svg" viewBox="0 0 256 256">
  <defs>
    <linearGradient id="g" x1="0" y1="0" x2="1" y2="1">
      <stop offset="0" stop-color="#0ea5e9"/>
      <stop offset="1" stop-color="#22c55e"/>
    </linearGradient>
  </defs>
  <rect width="256" height="256" rx="48" fill="url(#g)"/>

  <!-- speech bubble -->
  <path d="M78 82
           C78 66, 91 54, 108 54
           H149
           C166 54, 179 66, 179 82
           V125
           C179 141, 166 153, 149 153
           H118
           L90 175
           V153
           H108
           C91 153, 78 141, 78 125
           Z"
        fill="rgba(255,255,255,0.14)" />
  <!-- question mark -->
  <path d="M120 91
           C107 91, 101 99, 101 109
           C101 116, 105 121, 112 124
           C118 126, 121 128, 121 134
           C121 140, 116 144, 109 144
           C99 144, 93 137, 93 126
           H108
           C108 131, 111 134, 116 134
           C120 134, 123 131, 123 128
           C123 120, 116 117, 110 115
           C104 112, 100 108, 100 102
           C100 89, 111 79, 126 79
           C140 79, 151 88, 151 101
           C151 120, 135 119, 135 133
           H121
           C121 115, 135 115, 135 103
           C135 96, 129 91, 120 91Z"
        fill="#ffffff" opacity="0.95"/>
  <!-- dot -->
  <circle cx="128" cy="152" r="9" fill="#ffffff" opacity="0.85"/>
</svg>

