<svg xmlns="http://www.w3.org/2000/svg" viewBox="0 0 256 256">
  <defs>
    <linearGradient id="g" x1="0" y1="0" x2="1" y2="1">
      <stop offset="0" stop-color="#ef4444"/>
      <stop offset="1" stop-color="#22c55e"/>
    </linearGradient>
  </defs>
  <rect width="256" height="256" rx="48" fill="url(#g)"/>

  <!-- heart -->
  <path d="M128 78
           C115 62, 92 62, 80 78
           C68 93, 69 114, 85 128
           L128 172
           L171 128
           C187 114, 188 93, 176 78
           C164 62, 141 62, 128 78Z"
        fill="rgba(255,255,255,0.92)"/>

  <!-- hands shelter -->
  <path d="M70 160
           C90 140, 110 138, 128 150
           C146 138, 166 140, 186 160"
        fill="none" stroke="rgba(255,255,255,0.55)" stroke-width="10" stroke-linecap="round"/>
  <path d="M74 176
           C96 156, 110 152, 128 162
           C146 152, 160 156, 182 176"
        fill="none" stroke="rgba(255,255,255,0.35)" stroke-width="10" stroke-linecap="round"/>
</svg>

