<svg xmlns="http://www.w3.org/2000/svg" viewBox="0 0 256 256">
  <defs>
    <linearGradient id="g" x1="0" y1="0" x2="1" y2="1">
      <stop offset="0" stop-color="#f59e0b"/>
      <stop offset="1" stop-color="#ec4899"/>
    </linearGradient>
  </defs>
  <rect width="256" height="256" rx="48" fill="url(#g)"/>

  <!-- unlock -->
  <path d="M92 138
           C92 110, 114 88, 142 88
           C168 88, 186 106, 186 130
           V134
           H152
           V130
           C152 120, 145 112, 136 112
           C126 112, 118 120, 118 130
           V138Z"
        fill="rgba(255,255,255,0.22)"/>
  <rect x="80" y="128" width="96" height="82" rx="24" fill="rgba(255,255,255,0.88)"/>
  <path d="M120 152
           C120 144, 126 138, 134 138
           C142 138, 148 144, 148 152
           C148 160, 142 166, 134 166
           C126 166, 120 160, 120 152Z"
        fill="#ec4899"/>

  <!-- rays -->
  <path d="M48 140 L70 132" stroke="rgba(255,255,255,0.45)" stroke-width="8" stroke-linecap="round"/>
  <path d="M186 70 L196 52" stroke="rgba(255,255,255,0.45)" stroke-width="8" stroke-linecap="round"/>
  <path d="M206 160 L226 170" stroke="rgba(255,255,255,0.35)" stroke-width="8" stroke-linecap="round"/>
</svg>

